# xmcd
#
# Track frame offsets:
#	150
#	22527
#	45513
#	64303
#	84445
#	104121
#	125944
#	151969
#	172250
#	194513
#	212118
#	231703
#	252043
#	274725
#	303257
#	322576
#
# Disc length: 4541 seconds
#
# Revision: 7
# Processed by: cddbd v1.5.2PL0 Copyright (c) Steve Scherf et al.
# Submitted via: EasyCDDAExtractor 15.3.0.1
#
DISCID=e211bb10
DTITLE=Toni Braxton - The Essential Toni Braxton - CD 1
DYEAR=2007
DGENRE=R&B/Hip-Hop
TTITLE0=Love Shoulda Brought You Home
TTITLE1=I Love Me Some Him
TTITLE2=Tell Me
TTITLE3=You're Makin' Me High
TTITLE4=He Wasn't Man Enough
TTITLE5=Just Be A Man About It
TTITLE6=How Many Ways (R. Kelly Remix)
TTITLE7=Breathe Again
TTITLE8=You Mean The World To Me
TTITLE9=I Belong To You
TTITLE10=How Could An Angel Break My Heart
TTITLE11=Un-Break My Heart
TTITLE12=Another Sad Love Song
TTITLE13=Seven Whole Days
TTITLE14=I Don't Want To
TTITLE15=Give U My Heart (Performed By Babyface Featuring Toni Braxton)
EXTD=
EXTT0=
EXTT1=
EXTT2=
EXTT3=
EXTT4=
EXTT5=
EXTT6=
EXTT7=
EXTT8=
EXTT9=
EXTT10=
EXTT11=
EXTT12=
EXTT13=
EXTT14=
EXTT15=
PLAYORDER=
